<svg width="26" height="25" viewBox="0 0 26 25" fill="none" xmlns="http://www.w3.org/2000/svg">
<path d="M23.7328 3.22917H5.89104L4.36687 0.497292C4.28291 0.346573 4.16022 0.221013 4.01148 0.133587C3.86275 0.0461618 3.69336 4.38969e-05 3.52083 0H1.58333C1.3264 5.41436e-09 1.08 0.102064 0.898322 0.28374C0.716647 0.465416 0.614582 0.711821 0.614582 0.96875C0.614582 1.22568 0.716647 1.47208 0.898322 1.65376C1.08 1.83544 1.3264 1.9375 1.58333 1.9375H2.9525L4.456 4.6345L7.92542 12.3096L7.92929 12.3173L8.23542 12.9929L4.75179 16.709C4.62902 16.84 4.54506 17.0026 4.5093 17.1785C4.47354 17.3544 4.48739 17.5369 4.54928 17.7054C4.61118 17.8739 4.71869 18.022 4.85983 18.1329C5.00096 18.2439 5.17016 18.3135 5.34854 18.3339L8.52346 18.6969C12.4948 19.1515 16.5051 19.1515 20.4765 18.6969L23.6515 18.3352C23.9068 18.3061 24.1402 18.1767 24.3002 17.9755C24.4602 17.7744 24.5337 17.5179 24.5046 17.2625C24.4755 17.0071 24.3461 16.7737 24.1449 16.6137C23.9438 16.4537 23.6873 16.3802 23.4319 16.4093L20.257 16.771C16.4314 17.2082 12.5686 17.2082 8.74304 16.771L7.48366 16.6289L10.0412 13.9009C10.0655 13.8746 10.0883 13.847 10.1096 13.8182L11.081 13.9448C12.4437 14.1231 13.8219 14.158 15.191 14.0482C16.7726 13.9231 18.3137 13.4856 19.7251 12.7611C21.1366 12.0365 22.3903 11.0393 23.4138 9.827L24.1617 8.94221C24.1864 8.91263 24.2092 8.88157 24.2301 8.84921L25.6225 6.72829C26.6094 5.22479 25.5308 3.22917 23.7328 3.22917ZM7.39583 20.3438C6.88197 20.3438 6.38916 20.5479 6.02581 20.9112C5.66246 21.2746 5.45833 21.7674 5.45833 22.2812C5.45833 22.7951 5.66246 23.2879 6.02581 23.6513C6.38916 24.0146 6.88197 24.2188 7.39583 24.2188C7.90969 24.2188 8.4025 24.0146 8.76585 23.6513C9.1292 23.2879 9.33333 22.7951 9.33333 22.2812C9.33333 21.7674 9.1292 21.2746 8.76585 20.9112C8.4025 20.5479 7.90969 20.3438 7.39583 20.3438ZM19.6667 22.2812C19.6667 21.7674 19.8708 21.2746 20.2341 20.9112C20.5975 20.5479 21.0903 20.3438 21.6042 20.3438C22.118 20.3438 22.6108 20.5479 22.9742 20.9112C23.3375 21.2746 23.5417 21.7674 23.5417 22.2812C23.5417 22.7951 23.3375 23.2879 22.9742 23.6513C22.6108 24.0146 22.118 24.2188 21.6042 24.2188C21.0903 24.2188 20.5975 24.0146 20.2341 23.6513C19.8708 23.2879 19.6667 22.7951 19.6667 22.2812Z" fill="#D33953"/>
</svg>
